<?xml version="1.0" encoding="utf-8"?>
<!-- Generator: Adobe Illustrator 24.1.1, SVG Export Plug-In . SVG Version: 6.00 Build 0)  -->
<svg version="1.1" id="Vrstva_1" xmlns="http://www.w3.org/2000/svg" xmlns:xlink="http://www.w3.org/1999/xlink" x="0px" y="0px"
	 viewBox="0 0 216 200" style="enable-background:new 0 0 216 200;" xml:space="preserve">
<style type="text/css">
	.st0{fill:#FFFFFF;}
</style>
<g>
	<path class="st0" d="M55,96v16c-1,0-2,0-2.9,0.1c-6.2,0.6-11.8,2.9-16.4,6.6C28.6,124.4,24,133.2,24,143c0,17.1,13.9,31,31,31v16
		c-0.3,0-0.7,0-1,0c-25.5-0.5-46-21.4-46-47c0-15.5,7.5-29.3,19.2-37.9c4.3-3.2,9.1-5.6,14.4-7.2c4-1.2,8.1-1.9,12.5-2
		C54.3,96,54.7,96,55,96z"/>
</g>
<g>
	<path class="st0" d="M208,143c0,25.9-21.1,47-47,47v-16c17.1,0,31-13.9,31-31c0-3.7-0.7-7.3-1.9-10.6c-2.1-5.7-5.8-10.6-10.5-14.2
		c-5.2-3.9-11.6-6.2-18.6-6.2V96c13.9,0,26.3,6,35,15.6c3.6,4,6.5,8.6,8.5,13.6C206.8,130.7,208,136.7,208,143z"/>
</g>
<g>
	<path class="st0" d="M148.5,112h-15.9c0-14.8-10.7-27.2-24.9-30c-2-0.4-4-0.6-6.1-0.6c-3.8,0-7.5,0.7-10.9,1.9
		C78.9,87.7,70.5,98.9,70.5,112h-16c0-24.5,19.3-44.7,43.7-46.3c1.1-0.1,2.2-0.1,3.3-0.1c5.6,0,10.9,1,15.9,2.7
		C135.5,74.7,148.5,91.9,148.5,112z"/>
</g>
<rect x="54" y="96" class="st0" width="16" height="16"/>
<rect x="143" y="96" class="st0" width="18" height="16"/>
<rect x="54" y="174" class="st0" width="107" height="16"/>
<path class="st0" d="M177.7,134.3L177.7,134.3h-1C177,134.3,177.3,134.3,177.7,134.3z"/>
<g>
	<circle class="st0" cx="157" cy="40" r="18"/>
	<circle class="st0" cx="196" cy="40" r="18"/>
	<rect x="157" y="22" class="st0" width="40" height="36"/>
	<circle class="st0" cx="178.5" cy="24.5" r="15.5"/>
</g>
</svg>
