<?xml version="1.0" encoding="utf-8"?>
<!-- Generator: Adobe Illustrator 24.1.1, SVG Export Plug-In . SVG Version: 6.00 Build 0)  -->
<svg version="1.1" id="Vrstva_1" xmlns="http://www.w3.org/2000/svg" xmlns:xlink="http://www.w3.org/1999/xlink" x="0px" y="0px"
	 viewBox="0 0 200 200" style="enable-background:new 0 0 200 200;" xml:space="preserve">
<style type="text/css">
	.st0{fill:#FFFFFF;}
</style>
<g>
	<path class="st0" d="M47.5,131.4c-25.9,0-47-21.1-47-47s21.1-47,47-47v16c-17.1,0-31,13.9-31,31s13.9,31,31,31V131.4z"/>
</g>
<g>
	<path class="st0" d="M153.5,131.4v-16c17.1,0,31-13.9,31-31s-13.9-31-31-31v-16c25.9,0,47,21.1,47,47S179.4,131.4,153.5,131.4z"/>
</g>
<g>
	<path class="st0" d="M141,53.4h-16c0-14.8-10.7-27.2-24.9-30c-2-0.4-4-0.6-6.1-0.6c-3.8,0-7.5,0.7-10.9,1.9
		C71.4,29.1,63,40.3,63,53.4H47C47,28.9,66.3,8.7,90.7,7.1C91.8,7,92.9,6.9,94,6.9c5.6,0,10.9,1,15.9,2.7
		C128,16.1,141,33.3,141,53.4z"/>
</g>
<rect x="46.5" y="37.4" class="st0" width="16" height="16"/>
<rect x="135.5" y="37.4" class="st0" width="18" height="16"/>
<rect x="46.5" y="115.4" class="st0" width="107" height="16"/>
<circle class="st0" cx="97.7" cy="174.1" r="8"/>
<circle class="st0" cx="133" cy="191.9" r="8"/>
<circle class="st0" cx="62.5" cy="191.9" r="8"/>
<circle class="st0" cx="62.5" cy="141.1" r="8"/>
<circle class="st0" cx="133" cy="141.1" r="8"/>
</svg>
