<?xml version="1.0" encoding="utf-8"?>
<!-- Generator: Adobe Illustrator 24.1.1, SVG Export Plug-In . SVG Version: 6.00 Build 0)  -->
<svg version="1.1" id="Vrstva_1" xmlns="http://www.w3.org/2000/svg" xmlns:xlink="http://www.w3.org/1999/xlink" x="0px" y="0px"
	 viewBox="0 0 200 200" style="enable-background:new 0 0 200 200;" xml:space="preserve">
<style type="text/css">
	.st0{fill:#FFFFFF;}
</style>
<g>
	<path class="st0" d="M100,58.9c22.6,0,41.1,18.4,41.1,41.1s-18.4,41.1-41.1,41.1S58.9,122.6,58.9,100S77.4,58.9,100,58.9 M100,44
		c-30.9,0-56,25.1-56,56s25.1,56,56,56s56-25.1,56-56S130.9,44,100,44L100,44z"/>
</g>
<g>
	<rect x="99.5" y="7.5" class="st0" width="1" height="13"/>
	<polygon class="st0" points="108,0 92,0 92,28 108,28 	"/>
</g>
<g>
	<rect x="99.5" y="179.5" class="st0" width="1" height="13"/>
	<polygon class="st0" points="108,172 92,172 92,200 108,200 	"/>
</g>
<g>
	<rect x="7.5" y="99.5" class="st0" width="13" height="1"/>
	<polygon class="st0" points="28,92 0,92 0,108 28,108 	"/>
</g>
<g>
	<rect x="179.5" y="99.5" class="st0" width="13" height="1"/>
	<polygon class="st0" points="200,92 172,92 172,108 200,108 	"/>
</g>
<g>
	<rect x="32.7" y="160.3" transform="matrix(0.7071 -0.7071 0.7071 0.7071 -102.2178 74.806)" class="st0" width="13" height="1"/>
	<polygon class="st0" points="43.4,145.3 23.6,165.1 34.9,176.4 54.7,156.6 	"/>
</g>
<g>
	<rect x="154.3" y="38.7" transform="matrix(0.7071 -0.7071 0.7071 0.7071 19.3757 125.1953)" class="st0" width="13" height="1"/>
	<polygon class="st0" points="165.1,23.6 145.3,43.4 156.6,54.7 176.4,34.9 	"/>
</g>
<g>
	
		<rect x="160.3" y="154.3" transform="matrix(0.7071 -0.7071 0.7071 0.7071 -66.6153 160.7985)" class="st0" width="1" height="13"/>
	<polygon class="st0" points="156.6,145.3 145.3,156.6 165.1,176.4 176.4,165.1 	"/>
</g>
<g>
	<rect x="38.7" y="32.7" transform="matrix(0.7071 -0.7071 0.7071 0.7071 -16.228 39.1996)" class="st0" width="1" height="13"/>
	<polygon class="st0" points="34.9,23.6 23.6,34.9 43.4,54.7 54.7,43.4 	"/>
</g>
</svg>
