<?xml version="1.0" encoding="utf-8"?>
<!-- Generator: Adobe Illustrator 24.1.1, SVG Export Plug-In . SVG Version: 6.00 Build 0)  -->
<svg version="1.1" id="Vrstva_1" xmlns="http://www.w3.org/2000/svg" xmlns:xlink="http://www.w3.org/1999/xlink" x="0px" y="0px"
	 viewBox="0 0 216 200" style="enable-background:new 0 0 216 200;" xml:space="preserve">
<style type="text/css">
	.st0{fill:#FFFFFF;}
	.st1{fill:none;stroke:#FFFFFF;stroke-width:16;stroke-miterlimit:10;}
</style>
<g>
	<path class="st0" d="M177.5,113.1l-15.7-3.3c1.8-8.5,0.1-17.1-4.6-24.4c-4.8-7.2-12-12.2-20.5-14s-17.1-0.1-24.4,4.6
		c-1,0.7-2,1.4-2.9,2.1c-4.4,3.7-7.8,8.4-9.8,13.8c-2-0.4-4-0.6-6.1-0.6c-3.8,0-7.5,0.7-10.9,1.9c1.3-6.5,3.9-12.5,7.6-17.7
		c3.5-5.1,8-9.4,13.3-12.9c10.8-7.1,23.8-9.6,36.4-6.9c12.7,2.6,23.5,10,30.6,20.9S180.1,100.4,177.5,113.1z"/>
</g>
<g>
	<rect x="125" y="17" class="st0" width="16" height="33"/>
	<polygon class="st0" points="141,17 125,17 125,50 141,50 	"/>
</g>
<g>
	
		<rect x="173.4" y="56.8" transform="matrix(0.7071 -0.7071 0.7071 0.7071 12.4611 144.2603)" class="st0" width="14" height="0.6"/>
	<polygon class="st0" points="185.1,41.1 164.3,61.9 175.6,73.2 196.4,52.4 	"/>
</g>
<g>
	<rect x="79.3" y="50.1" transform="matrix(0.7071 -0.7071 0.7071 0.7071 -17.087 73.0093)" class="st0" width="0.6" height="14"/>
	<polygon class="st0" points="74.9,41.1 63.6,52.4 84.4,73.2 95.7,61.9 	"/>
</g>
<g>
	<rect x="183" y="92" class="st0" width="33" height="16"/>
	<polygon class="st0" points="216,92 183,92 183,108 216,108 	"/>
</g>
<path class="st1" d="M47,192c-21.5,0-39-17.5-39-39s17.5-39,39-39"/>
<path class="st1" d="M153,114c21.5,0,39,17.5,39,39s-17.5,39-39,39"/>
<g>
	<path class="st0" d="M140.5,122h-15.9c0-14.8-10.7-27.2-24.9-30c-2-0.4-4-0.6-6.1-0.6c-3.8,0-7.5,0.7-10.9,1.9
		c-11.8,4.3-20.2,15.5-20.2,28.6h-16c0-24.5,19.3-44.7,43.7-46.3c1.1-0.1,2.2-0.1,3.3-0.1c5.6,0,10.9,1,15.9,2.7
		C127.5,84.7,140.5,101.9,140.5,122z"/>
</g>
<rect x="46" y="106" class="st0" width="16" height="16"/>
<rect x="135" y="106" class="st0" width="18" height="16"/>
<rect x="46" y="184" class="st0" width="107" height="16"/>
</svg>
