<?xml version="1.0" encoding="utf-8"?>
<!-- Generator: Adobe Illustrator 24.1.1, SVG Export Plug-In . SVG Version: 6.00 Build 0)  -->
<svg version="1.1" id="Vrstva_1" xmlns="http://www.w3.org/2000/svg" xmlns:xlink="http://www.w3.org/1999/xlink" x="0px" y="0px"
	 viewBox="0 0 200 200" style="enable-background:new 0 0 200 200;" xml:space="preserve">
<style type="text/css">
	.st0{fill:#FFFFFF;}
</style>
<g>
	<path class="st0" d="M47.5,131.4c-25.9,0-47-21.1-47-47s21.1-47,47-47v16c-17.1,0-31,13.9-31,31s13.9,31,31,31V131.4z"/>
</g>
<g>
	<path class="st0" d="M153.5,131.4v-16c17.1,0,31-13.9,31-31s-13.9-31-31-31v-16c25.9,0,47,21.1,47,47S179.4,131.4,153.5,131.4z"/>
</g>
<g>
	<path class="st0" d="M141,53.4h-16c0-14.8-10.7-27.2-24.9-30c-2-0.4-4-0.6-6.1-0.6c-3.8,0-7.5,0.7-10.9,1.9
		C71.4,29.1,63,40.3,63,53.4H47C47,28.9,66.3,8.7,90.7,7.1C91.8,7,92.9,6.9,94,6.9c5.6,0,10.9,1,15.9,2.7
		C128,16.1,141,33.3,141,53.4z"/>
</g>
<rect x="46.5" y="37.4" class="st0" width="16" height="16"/>
<rect x="135.5" y="37.4" class="st0" width="18" height="16"/>
<rect x="46.5" y="115.4" class="st0" width="107" height="16"/>
<rect x="54.5" y="131.4" class="st0" width="16" height="3.5"/>
<rect x="54.5" y="131.2" class="st0" width="16" height="7.4"/>
<rect x="54.5" y="131.2" class="st0" width="16" height="12.3"/>
<rect x="54.5" y="131.4" class="st0" width="16" height="17"/>
<rect x="54.5" y="131.4" class="st0" width="16" height="22.1"/>
<rect x="54.5" y="131.4" class="st0" width="16" height="27.4"/>
<rect x="54.5" y="131.4" class="st0" width="16" height="32.1"/>
<rect x="54.5" y="131.4" class="st0" width="16" height="37.9"/>
<rect x="54.5" y="131.4" class="st0" width="16" height="37.9"/>
<rect x="63.7" y="153" transform="matrix(0.7071 -0.7071 0.7071 0.7071 -94.1084 94.7989)" class="st0" width="7.4" height="16"/>
<rect x="54.5" y="131.4" class="st0" width="16" height="37.9"/>
<rect x="62.4" y="149.9" transform="matrix(0.7071 -0.7071 0.7071 0.7071 -91.0171 96.0503)" class="st0" width="16" height="16"/>
<rect x="54.5" y="131.4" class="st0" width="16" height="37.9"/>
<rect x="60.2" y="144.6" transform="matrix(0.7071 -0.7071 0.7071 0.7071 -85.7073 98.2356)" class="st0" width="31" height="16"/>
<rect x="86.5" y="143.6" transform="matrix(0.7071 -0.7071 0.7071 0.7071 -86.0098 113.9361)" class="st0" width="16" height="34.4"/>
<rect x="90.7" y="153.8" transform="matrix(0.7071 -0.7071 0.7071 0.7071 -83.2306 122.6348)" class="st0" width="31.4" height="16"/>
<rect x="111.1" y="150" transform="matrix(0.7071 -0.7071 0.7071 0.7071 -80.8035 132.1173)" class="st0" width="16" height="27.2"/>
</svg>
