<?xml version="1.0" encoding="utf-8"?>
<!-- Generator: Adobe Illustrator 24.1.1, SVG Export Plug-In . SVG Version: 6.00 Build 0)  -->
<svg version="1.1" id="Vrstva_1" xmlns="http://www.w3.org/2000/svg" xmlns:xlink="http://www.w3.org/1999/xlink" x="0px" y="0px"
	 viewBox="0 0 512 512" style="enable-background:new 0 0 512 512;" xml:space="preserve">
<style type="text/css">
	.st0{fill:#0092FF;}
	.st1{fill:#463089;}
	.st2{fill:#1F1C1E;}
	.st3{fill:#00D8FF;}
</style>
<g>
	<g>
		<g>
			<path class="st0" d="M496.4,256c0,140.3-113.7,254-254,254V373.7c65,0,117.7-52.7,117.7-117.7s-52.7-117.7-117.7-117.7V2
				C382.7,2,496.4,115.7,496.4,256z"/>
			<polygon class="st1" points="165.3,341.4 66.7,341.4 66.7,170.6 165.3,170.6 214.6,256 			"/>
			<rect x="66.7" y="2" class="st0" width="175.7" height="136.2"/>
			<rect x="66.7" y="373.7" class="st0" width="175.7" height="136.2"/>
		</g>
		<g>
			<g>
				<polygon class="st2" points="214.6,256 165.3,341.4 66.7,341.4 66.7,170.6 165.3,170.6 				"/>
			</g>
		</g>
		<polygon class="st3" points="214.6,256 165.3,341.4 66.7,341.4 66.7,170.6 165.3,170.6 		"/>
	</g>
</g>
</svg>
