<?xml version="1.0" encoding="utf-8"?>
<!-- Generator: Adobe Illustrator 24.1.1, SVG Export Plug-In . SVG Version: 6.00 Build 0)  -->
<svg version="1.1" id="Vrstva_1" xmlns="http://www.w3.org/2000/svg" xmlns:xlink="http://www.w3.org/1999/xlink" x="0px" y="0px"
	 viewBox="0 0 18.6 31.6" style="enable-background:new 0 0 18.6 31.6;" xml:space="preserve">
<style type="text/css">
	.st0{fill:#FFFFFF;}
</style>
<g>
	<path class="st0" d="M0.8,0.8L0.8,0.8c1.1-1.1,2.9-1.1,4,0l13,13c1.1,1.1,1.1,2.9,0,4l0,0c-1.1,1.1-2.9,1.1-4,0l-13-13
		C-0.3,3.7-0.3,1.9,0.8,0.8z"/>
	<path class="st0" d="M0.8,30.8L0.8,30.8c-1.1-1.1-1.1-2.9,0-4l13-13c1.1-1.1,2.9-1.1,4,0l0,0c1.1,1.1,1.1,2.9,0,4l-13,13
		C3.7,31.9,1.9,31.9,0.8,30.8z"/>
</g>
</svg>
