<?xml version="1.0" encoding="utf-8"?>
<!-- Generator: Adobe Illustrator 23.0.1, SVG Export Plug-In . SVG Version: 6.00 Build 0)  -->
<svg version="1.1" id="Vrstva_1" xmlns="http://www.w3.org/2000/svg" xmlns:xlink="http://www.w3.org/1999/xlink" x="0px" y="0px"
	 viewBox="0 0 18.6 31.6" style="enable-background:new 0 0 18.6 31.6;" xml:space="preserve">
<style type="text/css">
	.st0{fill:#FFFFFF;}
</style>
<g>
	<path class="st0" d="M17.8,30.8L17.8,30.8c-1.1,1.1-2.9,1.1-4,0l-13-13c-1.1-1.1-1.1-2.9,0-4l0,0c1.1-1.1,2.9-1.1,4,0l13,13
		C18.9,27.9,18.9,29.7,17.8,30.8z"/>
	<path class="st0" d="M17.8,0.8L17.8,0.8c1.1,1.1,1.1,2.9,0,4l-13,13c-1.1,1.1-2.9,1.1-4,0l0,0c-1.1-1.1-1.1-2.9,0-4l13-13
		C14.9-0.3,16.7-0.3,17.8,0.8z"/>
</g>
</svg>
