<?xml version="1.0" encoding="utf-8"?>
<!-- Generator: Adobe Illustrator 24.1.1, SVG Export Plug-In . SVG Version: 6.00 Build 0)  -->
<svg version="1.1" id="Vrstva_1" xmlns="http://www.w3.org/2000/svg" xmlns:xlink="http://www.w3.org/1999/xlink" x="0px" y="0px"
	 viewBox="0 0 76.1 75.9" style="enable-background:new 0 0 76.1 75.9;" xml:space="preserve">
<style type="text/css">
	.st0{fill:#FFFFFF;}
</style>
<g>
	<path class="st0" d="M11.1,2.4l62.4,62.4c2.3,2.3,2.3,6,0,8.3l0,0c-2.3,2.3-6,2.3-8.3,0L2.8,10.8c-2.3-2.3-2.3-6.1,0-8.3l0,0
		C5.1,0.2,8.8,0.1,11.1,2.4z"/>
	<path class="st0" d="M2.8,64.8L65.2,2.4c2.3-2.3,6.1-2.3,8.3,0l0,0c2.3,2.3,2.3,6,0,8.3L11.1,73.1c-2.3,2.3-6,2.3-8.3,0l0,0
		C0.5,70.9,0.5,67.1,2.8,64.8z"/>
</g>
</svg>
