<?xml version="1.0" encoding="utf-8"?>
<!-- Generator: Adobe Illustrator 24.1.1, SVG Export Plug-In . SVG Version: 6.00 Build 0)  -->
<svg version="1.1" id="Vrstva_1" xmlns="http://www.w3.org/2000/svg" xmlns:xlink="http://www.w3.org/1999/xlink" x="0px" y="0px"
	 viewBox="0 0 200 200" style="enable-background:new 0 0 200 200;" xml:space="preserve">
<style type="text/css">
	.st0{fill:#FFFFFF;}
	.st1{fill:none;stroke:#FFFFFF;stroke-width:22;stroke-miterlimit:10;}
</style>
<g>
	<path class="st0" d="M139.3,94H60.7c-13.2,0-23.8,10.7-23.8,23.8v58.3c0,13.2,10.7,23.9,23.8,23.9h78.7c13.2,0,23.8-10.7,23.8-23.9
		v-58.3C163.2,104.7,152.5,94,139.3,94z M111.4,178.8H88.6l2.2-26.5c-4.1-2.9-6.8-7.7-6.8-13.1c0-8.8,7.2-16,16-16s16,7.2,16,16
		c0,5.4-2.7,10.2-6.8,13.1L111.4,178.8z"/>
</g>
<path class="st1" d="M51.5,60.5C51.5,33.7,73.2,12,100,12s48.5,21.7,48.5,48.5"/>
</svg>
