<?xml version="1.0" encoding="utf-8"?>
<!-- Generator: Adobe Illustrator 24.1.1, SVG Export Plug-In . SVG Version: 6.00 Build 0)  -->
<svg version="1.1" id="Vrstva_1" xmlns="http://www.w3.org/2000/svg" xmlns:xlink="http://www.w3.org/1999/xlink" x="0px" y="0px"
	 viewBox="0 0 200 200" style="enable-background:new 0 0 200 200;" xml:space="preserve">
<style type="text/css">
	.st0{fill:#FFFFFF;}
</style>
<g>
	<path class="st0" d="M100,36c-6.6,0-13,1-19,2.9c-3.8,1.2-7.4,2.7-10.8,4.5c-11.5,6-20.8,15.4-26.9,26.9c-1.8,3.4-3.3,7-4.5,10.8
		C37,87,36,93.4,36,100s1,13,2.9,19c1.2,3.8,2.7,7.4,4.5,10.8c6,11.5,15.4,20.8,26.9,26.9c3.4,1.8,7,3.3,10.8,4.5
		c6,1.9,12.4,2.9,19,2.9s13-1,19-2.9c3.8-1.2,7.4-2.7,10.8-4.5c11.5-6,20.8-15.4,26.9-26.9c1.8-3.4,3.3-7,4.5-10.8
		c1.9-6,2.9-12.4,2.9-19s-1-13-2.9-19c-1.2-3.8-2.7-7.4-4.5-10.8c-6-11.5-15.4-20.8-26.9-26.9c-3.4-1.8-7-3.3-10.8-4.5
		C113,37,106.6,36,100,36L100,36z M100,137c-3.1,0-6.1-0.4-9-1.1c-3.6-0.9-6.9-2.3-10-4.1c-5.2-3.1-9.6-7.5-12.8-12.8
		c-1.8-3.1-3.3-6.4-4.1-10c-0.7-2.9-1.1-5.9-1.1-9s0.4-6.1,1.1-9c0.9-3.6,2.3-6.9,4.1-10c3.1-5.2,7.5-9.6,12.8-12.8
		c3.1-1.8,6.4-3.3,10-4.1c2.9-0.7,5.9-1.1,9-1.1s6.1,0.4,9,1.1c3.6,0.9,6.9,2.3,10,4.1c5.2,3.1,9.6,7.5,12.8,12.8
		c1.8,3.1,3.3,6.4,4.1,10c0.7,2.9,1.1,5.9,1.1,9s-0.4,6.1-1.1,9c-0.9,3.6-2.3,6.9-4.1,10c-3.1,5.2-7.5,9.6-12.8,12.8
		c-3.1,1.8-6.4,3.3-10,4.1C106.1,136.6,103.1,137,100,137L100,137z"/>
</g>
<g>
	<path class="st0" d="M111.5,5H88.5C84.4,5,81,8.4,81,12.5L77,65c1.1-0.7,2.8-0.9,4.7-0.9c2.1,0,4.5,0.2,6.5,0.2
		c1.1,0,2-0.1,2.8-0.3c2.9-0.7,5.9-1.1,9-1.1s6.1,0.4,9,1.1c0.5,0.1,1.1,0.2,1.7,0.2c2.7,0,6.4-0.9,9.2-0.9c1.2,0,2.3,0.2,3,0.6
		l-4-51.5C119,8.4,115.6,5,111.5,5L111.5,5z"/>
</g>
<g>
	<path class="st0" d="M123,135c-1.1,0.7-2.8,0.9-4.7,0.9c-2.1,0-4.5-0.2-6.5-0.2c-1.1,0-2,0.1-2.8,0.3c-2.9,0.7-5.9,1.1-9,1.1
		s-6.1-0.4-9-1.1c-0.5-0.1-1.1-0.2-1.7-0.2c-2.7,0-6.4,0.9-9.2,0.9c-1.2,0-2.3-0.2-3-0.6l4,51.5c0,4.2,3.4,7.5,7.5,7.5h22.9
		c4.2,0,7.5-3.4,7.5-7.5L123,135L123,135z"/>
</g>
<g>
	<path class="st0" d="M64,77l-51.5,4C8.4,81,5,84.4,5,88.5v22.9c0,4.2,3.4,7.5,7.5,7.5l52.5,4c-1.8-3.1,0-10.4-0.9-14
		c-0.7-2.9-1.1-5.9-1.1-9s0.4-6.1,1.1-9C65,87.4,62.2,80.1,64,77L64,77z"/>
</g>
<g>
	<path class="st0" d="M135,77c1.8,3.1,0,10.4,0.9,14c0.7,2.9,1.1,5.9,1.1,9s-0.4,6.1-1.1,9c-0.9,3.6,1.9,10.9,0.1,14l51.5-4
		c4.2,0,7.5-3.4,7.5-7.5V88.5c0-4.2-3.4-7.5-7.5-7.5L135,77L135,77z"/>
</g>
<g>
	<path class="st0" d="M58.3,109.2l-33.6,39.2c-2.9,2.9-2.9,7.7,0,10.6l16.2,16.2c1.5,1.5,3.4,2.2,5.3,2.2c1.9,0,3.9-0.7,5.3-2.2
		L91.5,141c-3.5-0.9-7.4-7.4-10.5-9.3c-2.6-1.5-5-3.4-7.2-5.6c-2.2-2.2-4.1-4.6-5.6-7.2C66.4,115.9,59.1,112.7,58.3,109.2
		L58.3,109.2z"/>
</g>
<g>
	<path class="st0" d="M153.7,22.5c-1.9,0-3.9,0.7-5.3,2.2L108.5,59c3.5,0.9,7.4,7.4,10.5,9.3c2.6,1.5,5,3.4,7.2,5.6
		c2.2,2.2,4.1,4.6,5.6,7.2c1.9,3.1,9.1,6.3,10,9.8l33.6-39.2c2.9-2.9,2.9-7.7,0-10.6l-16.2-16.2C157.6,23.2,155.7,22.5,153.7,22.5
		L153.7,22.5z"/>
</g>
<g>
	<path class="st0" d="M141,108.5c-0.9,3.5-7.4,7.4-9.3,10.5c-1.5,2.6-3.4,5-5.6,7.2c-2.2,2.2-4.6,4.1-7.2,5.6
		c-3.1,1.9-6.3,9.1-9.8,10l39.2,33.6c1.5,1.5,3.4,2.2,5.3,2.2s3.9-0.7,5.3-2.2l16.2-16.2c2.9-2.9,2.9-7.7,0-10.6L141,108.5
		L141,108.5z"/>
</g>
<g>
	<path class="st0" d="M46.3,22.5c-1.9,0-3.9,0.7-5.3,2.2L24.7,40.9c-2.9,2.9-2.9,7.7,0,10.6L59,91.5c0.9-3.5,7.4-7.4,9.3-10.5
		c1.5-2.6,3.4-5,5.6-7.2c2.2-2.2,4.6-4.1,7.2-5.6c3.1-1.9,6.3-9.1,9.8-10L51.6,24.7C50.1,23.2,48.2,22.5,46.3,22.5L46.3,22.5z"/>
</g>
</svg>
