<?xml version="1.0" encoding="utf-8"?>
<!-- Generator: Adobe Illustrator 24.1.1, SVG Export Plug-In . SVG Version: 6.00 Build 0)  -->
<svg version="1.1" id="Vrstva_1" xmlns="http://www.w3.org/2000/svg" xmlns:xlink="http://www.w3.org/1999/xlink" x="0px" y="0px"
	 viewBox="0 0 200 200" style="enable-background:new 0 0 200 200;" xml:space="preserve">
<style type="text/css">
	.st0{fill:#FFFFFF;stroke:#FFFFFF;stroke-width:19.8922;stroke-miterlimit:10;}
</style>
<path class="st0" d="M107,18.1L130.1,65c0.8,1.7,2.4,2.8,4.2,3.1l51.7,7.5c4.6,0.7,6.4,6.3,3.1,9.5l-37.4,36.5
	c-1.3,1.3-1.9,3.1-1.6,5L159,178c0.8,4.6-4,8.1-8.1,5.9l-46.3-24.3c-1.6-0.9-3.6-0.9-5.2,0l-46.3,24.3c-4.1,2.2-8.9-1.3-8.1-5.9
	l8.8-51.5c0.3-1.8-0.3-3.7-1.6-5L14.8,85.1c-3.3-3.2-1.5-8.9,3.1-9.5L69.6,68c1.8-0.3,3.4-1.4,4.2-3.1L97,18.1
	C99,14,105,14,107,18.1z"/>
</svg>
