<?xml version="1.0" encoding="utf-8"?>
<!-- Generator: Adobe Illustrator 24.1.1, SVG Export Plug-In . SVG Version: 6.00 Build 0)  -->
<svg version="1.1" id="Vrstva_1" xmlns="http://www.w3.org/2000/svg" xmlns:xlink="http://www.w3.org/1999/xlink" x="0px" y="0px"
	 viewBox="0 0 381.3 120" style="enable-background:new 0 0 381.3 120;" xml:space="preserve">
<style type="text/css">
	.st0{fill-rule:evenodd;clip-rule:evenodd;fill:#FFFFFF;}
</style>
<g transform="matrix(4.67548 0 0 4.67548 99.9883 143.894)">
	<path class="st0" d="M51.8-8.1v-4.3H41.3v-4.2l9.6-12.3h6.7v12.3H60v4.2h-2.4v4.3H51.8z M51.8-16.6v-6.5h-0.1l-4.4,6.4v0.1H51.8z
		 M51.8-16.6L51.8-16.6L51.8-16.6L51.8-16.6z M30.1-12.3h9.9v4.2H23.9c-0.1-0.6-0.1-1.2-0.1-1.8c0-8.5,10.1-8.3,10.1-12.8
		c0-1.4-1.5-2-3.2-2c-1.9,0-3.8,0.7-5.6,1.7l-1.6-4c2.4-1.6,5.2-2.4,8-2.4c4.4,0,8.3,1.8,8.3,6.2C40.1-16.4,30.9-14.9,30.1-12.3
		L30.1-12.3z M-11.7-30.3c2.5-0.2,5.3-0.3,7.5-0.3v3.3c-1.1,0-2.2,0.1-3.3,0.2c-3.9,0.4-4.6,1.3-5.1,5c-0.3,2.9-0.3,5.7,0,8.6
		c0.4,3.7,1.2,4.5,5.1,5c1.1,0,2.2,0,3.3,0.1v3.3c-2.2,0-5-0.1-7.5-0.3c-7-0.5-8.2-1.7-9.1-6.7c-0.6-3.8-0.6-7.7,0-11.5
		C-19.9-28.6-18.6-29.7-11.7-30.3z"/>
	<path class="st0" d="M16.6-17.9c0,1.9-0.1,3.8-0.4,5.7c-0.8,5-2.1,6-9.1,6.7C4.6-5.4,1.8-5.3-0.4-5.2v-3.3c1.1,0,2.2-0.1,3.3-0.2
		c3.9-0.4,4.6-1.3,5.1-5c0.3-2.9,0.3-5.7,0-8.6c-0.4-3.7-1.2-4.5-5.1-5c-1.1-0.1-2.2-0.2-3.3-0.2v-3.3c2.2,0,5,0.1,7.5,0.3
		c7,0.5,8.2,1.7,9.1,6.7C16.5-21.8,16.6-19.9,16.6-17.9L16.6-17.9z"/>
</g>
</svg>
