<?xml version="1.0" encoding="utf-8"?>
<!-- Generator: Adobe Illustrator 24.1.1, SVG Export Plug-In . SVG Version: 6.00 Build 0)  -->
<svg version="1.1" id="Vrstva_1" xmlns="http://www.w3.org/2000/svg" xmlns:xlink="http://www.w3.org/1999/xlink" x="0px" y="0px"
	 viewBox="0 0 430 120" style="enable-background:new 0 0 430 120;" xml:space="preserve">
<style type="text/css">
	.st0{fill-rule:evenodd;clip-rule:evenodd;fill:#FFFFFF;}
</style>
<g transform="matrix(4.67548 0 0 4.67548 99.9883 143.894)">
	<path class="st0" d="M55.2-8.6v-4.1h-9.9v-4l9.1-11.6h6.3v11.6H63v4h-2.3v4.1H55.2z M55.2-16.7v-6.2h-0.1l-4.2,6.1v0.1H55.2z
		 M55.2-16.7L55.2-16.7L55.2-16.7L55.2-16.7z M34.7-12.6h9.4v4H28.8c-0.1-0.6-0.1-1.1-0.1-1.7c0-8,9.6-7.9,9.6-12.1
		c0-1.3-1.4-1.9-3-1.9c-1.8,0-3.6,0.7-5.3,1.6l-1.5-3.8c2.3-1.5,4.9-2.3,7.6-2.3c4.2,0,7.9,1.7,7.9,5.9
		C44.1-16.5,35.4-15.1,34.7-12.6L34.7-12.6z M-4.9-29.6c2.4-0.2,5-0.3,7.1-0.3v3.1c-1,0-2.1,0.1-3.1,0.2c-3.7,0.4-4.4,1.2-4.8,4.7
		c-0.3,2.7-0.3,5.4,0,8.1c0.4,3.5,1.1,4.3,4.8,4.7c1,0,2.1,0,3.1,0.1v3.1C0.1-5.9-2.5-6-4.9-6.2c-6.6-0.5-7.8-1.6-8.6-6.3
		c-0.6-3.6-0.6-7.3,0-10.9C-12.7-28-11.4-29.1-4.9-29.6z"/>
	<path class="st0" d="M21.9-17.9c0,1.8-0.1,3.6-0.4,5.4c-0.8,4.7-2,5.7-8.6,6.3c-2.4,0.1-5,0.2-7.1,0.3V-9c1,0,2.1-0.1,3.1-0.2
		c3.7-0.4,4.4-1.2,4.8-4.7c0.3-2.7,0.3-5.4,0-8.1c-0.4-3.5-1.1-4.3-4.8-4.7c-1-0.1-2.1-0.2-3.1-0.2V-30c2.1,0,4.7,0.1,7.1,0.3
		c6.6,0.5,7.8,1.6,8.6,6.3C21.8-21.6,21.9-19.8,21.9-17.9L21.9-17.9z"/>
</g>
</svg>
