<?xml version="1.0" encoding="utf-8"?>
<!-- Generator: Adobe Illustrator 24.1.1, SVG Export Plug-In . SVG Version: 6.00 Build 0)  -->
<svg version="1.1" id="layer" xmlns="http://www.w3.org/2000/svg" xmlns:xlink="http://www.w3.org/1999/xlink" x="0px" y="0px"
	 viewBox="0 0 738 130" style="enable-background:new 0 0 738 130;" xml:space="preserve">
<style type="text/css">
	.st0{fill:#FFFFFF;}
</style>
<path class="st0" d="M491.3,98.8c-8.8,0-15.6,6.8-15.6,15.6s6.8,15.6,15.6,15.6s15.6-7.2,15.6-15.6C507,105.7,499.8,98.8,491.3,98.8
	z M98.4,0.8c-8.8,0-15.6,6.8-15.6,15.6S89.6,32,98.4,32S114,24.9,114,16.5C113.7,8,106.8,0.8,98.4,0.8z"/>
<path class="st0" d="M101.6,39.9H70.1c-2.3,0-3.6,0.7-4.2,3.6l-2,9.4l-0.3,2.3c0,1,0.3,3.6,3.9,3.6c0,0,7.8,0,10.7,0
	c-1,3.9-13.3,63.2-13.3,63.2l-0.3,2.3c0,1,0.3,3.6,3.9,3.6h16c2.6,0,3.6-1,4.2-3.6l16.5-78.5c0,0.3,0.3-2.6,0.3-2.6
	C105.2,41.8,104.2,39.9,101.6,39.9z M479.6,17.4l1-2.3c0-5.9-21.2-11.1-31.3-11.1c-28,0-45.6,15-45.6,39.4
	c0,18.2,12.4,25.7,22.5,31.6l1,0.3c7.8,4.6,15,8.8,15,17.3c0,13.3-11.1,15.3-17.9,15.3c-8.8,0-16.6-3.6-21.2-5.5
	c-2.3-1-3.3-1.6-4.2-1.6c-2,0-2.6,1-3.3,2l-0.3,0.3l-6.5,12.4l-0.7,1l-1,2.3c0,5.5,23.1,11.1,33.5,11.1c28.3,0,47.2-16.9,47.2-41.7
	c0-9.4-3.6-16.9-10.4-22.8c-4.6-3.6-9.4-6.5-13.7-9.1c-8.5-4.9-15-8.8-15-16.3c0-8.8,6.5-14,17.3-14c7.8,0,14.3,3.6,18.6,5.5
	c2.3,1,3.3,1.6,4.2,1.6c2,0,2.6-1,3.3-2l0.3-0.3l6.5-12.4C479,18.4,479.6,17.4,479.6,17.4z M170.7,7.3h-35.5c-2.6,0-3.9,0.7-4.9,3.6
	L128,22v0.3l-0.3,2.9c0,2.9,3.3,2.9,4.6,2.9c0,0,1,0,2.3,0c-6.6,31-19.6,92.5-19.6,92.5l-0.3,2.9c0,1.3,0.7,3.6,4.2,3.6h32.6
	c46.9,0,59.3-51.8,59.3-82.7C210.7,20,197,7.3,170.7,7.3z M152.8,106.3c0,0-6.5,0-9.4,0c1-3.9,15.6-74.9,16.3-77.8
	c1.6,0,5.5,0,5.5,0c12.7,0,19.2,2.9,19.2,18.2C184,67.6,177.5,106.3,152.8,106.3z M310.6,7.3h-14.3c-2.6,0-3.9,0.7-4.9,3.6
	l-11.7,55.3c-0.7,2.9-1.3,6.5-2,10.1c-0.7-2.9-1.6-6.2-2.9-9.4l-18.2-56.3c-1-2.9-1.6-3.3-4.6-3.3h-20.2c-2.6,0-3.9,0.7-4.9,3.6
	L224.6,22v0.3l-0.3,2.9c0,2.9,3.3,2.9,4.6,2.9c0,0,1,0,2.6,0C225,59,212,120.6,212,120.6l-0.3,2.9c0,1.3,0.7,3.6,4.2,3.6h14.3
	c2.6,0,3.9-0.7,4.9-3.6l12.7-59.3l0.3-1.3c0.7-2.6,1-5.5,1.6-7.8c0.7,2.3,1.3,4.6,2,7.2l19.5,61.5c0.7,2.9,2,3.3,4.6,3.3h11.1
	c2.9,0,3.9-1,4.6-3.6l23.4-110l0.3-2.9C314.9,9.3,314.2,7.3,310.6,7.3z M398.5,7.3h-64.8c-2.6,0-3.9,0.7-4.9,3.6L326.5,22v0.3
	l-0.3,2.9c0,2.9,3.3,2.9,4.6,2.9c0,0,1,0,2.6,0c-6.8,31.3-19.9,92.8-19.9,92.8l-0.3,2.9c0,1.3,0.7,3.6,4.2,3.6H374
	c2.6,0,3.9-0.7,4.9-3.6l2.3-11.1v-0.3l0.3-2.9c0-2.9-3.3-2.9-4.6-2.9c0,0-30.6,0-34.5,0c0.7-3.6,5.9-28.3,6.5-30.9c2.6,0,28,0,28,0
	c2.9,0,3.9-0.7,4.9-3.6l2.6-11.7l0.3-2.3c0-1.6-1.3-3.6-4.2-3.6c0,0-23.1,0-26.7,0c0.7-3.3,4.9-23.1,5.5-25.4c2.6,0,32.2,0,32.2,0
	c2.6,0,3.6-0.3,5.2-2.9l5.9-11.4l0.3-1l0.7-2.3C403.1,7.7,401.2,7.3,398.5,7.3z M563.3,57.1c4.9,0,7.8,1,11.7,3.6
	c0.7,0.7,1.3,1,2.6,1s2.3-0.7,2.9-1.6c0-0.3,6.8-11.4,6.8-11.4l0.7-2.3c0-1.6-1.3-2.6-2.9-3.6c-6.2-3.9-13-5.9-21.5-5.9
	c-11.4,0-22.1,3.6-29.3,10.4c-12,10.7-19.2,29.3-19.2,47.9c0,21.8,12.4,34.8,32.9,34.8c8.1,0,24.7-4.2,24.7-9.4l-0.7-2.3l-4.2-11.4
	l0,0c-0.3-0.3-1-1.6-2.6-1.6c-1,0-2,0.3-3.6,1.3c-4.6,2-7.5,2.6-10.7,2.6c-7.5,0-11.1-3.9-11.1-12c0-12.4,3.6-25.4,9.8-33.9
	C552.5,59.4,557.4,57.1,563.3,57.1z M659.3,39.9h-54.4c-2.9,0-3.6,1.3-3.9,3.6l-2.3,10.7l-0.3,2.6c0,1.6,1,3.3,3.9,3.3
	c0,0,22.8,0,29,0c-4.9,5.2-47.5,50.5-47.5,50.5l-2.6,11.4l-0.3,2.3c0,1.6,1,3.3,4.2,3.3h59.6c2.6,0,4.6-1,4.9-2.6
	c0.3-0.7,2.9-13.7,2.9-14.7c0-1.3-0.7-2.9-3.9-2.9c0,0-28.3,0-34.8,0c4.9-5.2,46.9-49.5,46.9-49.5l2.6-12.4c0-0.3,0.3-2,0.3-2l0,0
	C663.2,42.5,662.9,39.9,659.3,39.9z"/>
</svg>
