<?xml version="1.0" encoding="utf-8"?>
<!-- Generator: Adobe Illustrator 23.0.1, SVG Export Plug-In . SVG Version: 6.00 Build 0)  -->
<svg version="1.1" id="Vrstva_1" xmlns="http://www.w3.org/2000/svg" xmlns:xlink="http://www.w3.org/1999/xlink" x="0px" y="0px"
	 viewBox="0 0 34 42" style="enable-background:new 0 0 34 42;" xml:space="preserve">
<style type="text/css">
	.st0{fill:#FFFFFF;}
</style>
<g>
	<path class="st0" d="M17,42C7.6,42,0,34.4,0,25S7.6,8,17,8s17,7.6,17,17S26.4,42,17,42z M17,12C9.8,12,4,17.8,4,25s5.8,13,13,13
		s13-5.8,13-13S24.2,12,17,12z"/>
</g>
<path class="st0" d="M17,14.6L17,14.6c1.2,0,2.1,0.9,2.1,2.1v9.2c0,1.2-0.9,2.1-2.1,2.1l0,0c-1.2,0-2.1-0.9-2.1-2.1v-9.2
	C14.9,15.5,15.8,14.6,17,14.6z"/>
<path class="st0" d="M17,0L17,0c1.2,0,2.1,0.9,2.1,2.1v6.7h-4.2V2.1C14.9,0.9,15.8,0,17,0z"/>
<path class="st0" d="M24.8,25.9L24.8,25.9c0,1.2-0.9,2.1-2.1,2.1H17c-1.2,0-2.1-0.9-2.1-2.1l0,0c0-1.2,0.9-2.1,2.1-2.1h5.8
	C23.9,23.9,24.8,24.8,24.8,25.9z"/>
</svg>
