<?xml version="1.0" encoding="utf-8"?>
<!-- Generator: Adobe Illustrator 23.0.1, SVG Export Plug-In . SVG Version: 6.00 Build 0)  -->
<svg version="1.1" id="Vrstva_1" xmlns="http://www.w3.org/2000/svg" xmlns:xlink="http://www.w3.org/1999/xlink" x="0px" y="0px"
	 viewBox="0 0 100 100" style="enable-background:new 0 0 100 100;" xml:space="preserve">
<g>
	<path d="M5.9,44.1h88.2c3.2,0,5.9,2.6,5.9,5.9l0,0c0,3.2-2.6,5.9-5.9,5.9H5.9C2.6,55.9,0,53.2,0,50l0,0C0,46.8,2.6,44.1,5.9,44.1z"
		/>
	<path d="M44.1,94.1V5.9C44.1,2.6,46.8,0,50,0l0,0c3.2,0,5.9,2.6,5.9,5.9v88.2c0,3.2-2.6,5.9-5.9,5.9l0,0
		C46.8,100,44.1,97.4,44.1,94.1z"/>
</g>
</svg>
