<?xml version="1.0" encoding="utf-8"?>
<!-- Generator: Adobe Illustrator 23.0.1, SVG Export Plug-In . SVG Version: 6.00 Build 0)  -->
<svg version="1.1" id="Vrstva_1" xmlns="http://www.w3.org/2000/svg" xmlns:xlink="http://www.w3.org/1999/xlink" x="0px" y="0px"
	 viewBox="0 0 34 42" style="enable-background:new 0 0 34 42;" xml:space="preserve">
<g>
	<g>
		<path d="M17,42C7.6,42,0,34.4,0,25S7.6,8,17,8s17,7.6,17,17S26.4,42,17,42z M17,12C9.8,12,4,17.8,4,25s5.8,13,13,13s13-5.8,13-13
			S24.2,12,17,12z"/>
	</g>
	<path d="M17,14.6L17,14.6c1.2,0,2.1,0.9,2.1,2.1v9.2c0,1.2-0.9,2.1-2.1,2.1l0,0c-1.2,0-2.1-0.9-2.1-2.1v-9.2
		C14.9,15.5,15.8,14.6,17,14.6z"/>
	<rect x="14.9" width="4.2" height="8.8"/>
	<path d="M11.6,2.1L11.6,2.1c0-1.2,0.9-2.1,2.1-2.1h6.7c1.2,0,2.1,0.9,2.1,2.1l0,0c0,1.2-0.9,2.1-2.1,2.1h-6.7
		C12.5,4.2,11.6,3.2,11.6,2.1z"/>
</g>
</svg>
