<?xml version="1.0" encoding="utf-8"?>
<!-- Generator: Adobe Illustrator 23.0.1, SVG Export Plug-In . SVG Version: 6.00 Build 0)  -->
<svg version="1.1" id="Vrstva_1" xmlns="http://www.w3.org/2000/svg" xmlns:xlink="http://www.w3.org/1999/xlink" x="0px" y="0px"
	 viewBox="0 0 34 42" style="enable-background:new 0 0 34 42;" xml:space="preserve">
<style type="text/css">
	.st0{fill:#FFFFFF;}
</style>
<g>
	<path class="st0" d="M17,42C7.6,42,0,34.4,0,25S7.6,8,17,8s17,7.6,17,17S26.4,42,17,42z M17,12C9.8,12,4,17.8,4,25
		c0,7.2,5.8,13,13,13c7.2,0,13-5.8,13-13C30,17.8,24.2,12,17,12z"/>
</g>
<path class="st0" d="M17,14.6L17,14.6c1.2,0,2.1,0.9,2.1,2.1v9.2c0,1.2-0.9,2.1-2.1,2.1h0c-1.2,0-2.1-0.9-2.1-2.1v-9.2
	C14.9,15.5,15.8,14.6,17,14.6z"/>
<path class="st0" d="M24.8,25.8L24.8,25.8c0,1.2-0.9,2.1-2.1,2.1H17c-1.2,0-2.1-0.9-2.1-2.1v0c0-1.2,0.9-2.1,2.1-2.1h5.8
	C23.9,23.8,24.8,24.7,24.8,25.8z"/>
<g>
	<rect x="25.9" y="4" transform="matrix(0.7071 0.7071 -0.7071 0.7071 14.123 -17.346)" class="st0" width="4.2" height="8.8"/>
	<path class="st0" d="M25.8,2.9L25.8,2.9c0.8-0.8,2.1-0.8,2.9,0l4.7,4.7c0.8,0.8,0.8,2.1,0,2.9v0c-0.8,0.8-2.1,0.8-2.9,0l-4.7-4.7
		C25,5.1,25,3.7,25.8,2.9z"/>
</g>
<g>
	<rect x="4" y="4" transform="matrix(0.7071 -0.7071 0.7071 0.7071 -4.1468 6.7386)" class="st0" width="4.2" height="8.8"/>
	<path class="st0" d="M0.6,10.6L0.6,10.6c-0.8-0.8-0.8-2.1,0-2.9l4.7-4.7c0.8-0.8,2.1-0.8,2.9,0l0,0c0.8,0.8,0.8,2.1,0,2.9l-4.7,4.7
		C2.7,11.4,1.4,11.4,0.6,10.6z"/>
</g>
</svg>
